<?xml version="1.0" encoding="utf-8"?>
<!-- Generator: Adobe Illustrator 16.0.0, SVG Export Plug-In . SVG Version: 6.00 Build 0)  -->
<!DOCTYPE svg PUBLIC "-//W3C//DTD SVG 1.1//EN" "http://www.w3.org/Graphics/SVG/1.1/DTD/svg11.dtd">
<svg version="1.1" id="Icons" xmlns="http://www.w3.org/2000/svg" xmlns:xlink="http://www.w3.org/1999/xlink" x="0px" y="0px"
	 width="80px" height="80px" viewBox="0 0 80 80" enable-background="new 0 0 80 80" xml:space="preserve">
<path fill="#333333" d="M80,73.157L60.427,53.581c3.721-5.111,5.943-11.386,5.943-18.193c0-17.112-13.871-30.981-30.982-30.981
	c-17.112,0-30.981,13.869-30.981,30.981c0,17.111,13.869,30.982,30.981,30.982c6.808,0,13.082-2.223,18.193-5.943L73.157,80
	L80,73.157z M35.388,56.688c-11.745,0-21.299-9.557-21.299-21.3c0-11.745,9.555-21.299,21.299-21.299
	c11.743,0,21.3,9.555,21.3,21.299C56.688,47.131,47.131,56.688,35.388,56.688z"/>
</svg>
